<svg id="svg" version="1.1" xmlns="http://www.w3.org/2000/svg" xmlns:xlink="http://www.w3.org/1999/xlink" width="400" height="317.89077212806023" viewBox="0, 0, 400,317.89077212806023"><g id="svgg"><path id="path0" d="M196.219 53.390 C 195.976 53.544,194.725 53.768,193.439 53.889 C 192.153 54.009,191.020 54.239,190.921 54.399 C 190.822 54.559,190.114 54.690,189.348 54.690 C 188.582 54.690,187.866 54.833,187.758 55.008 C 187.650 55.183,187.151 55.326,186.649 55.326 C 186.148 55.326,185.522 55.541,185.260 55.803 C 184.998 56.065,184.487 56.280,184.124 56.280 C 183.762 56.280,183.466 56.423,183.466 56.598 C 183.466 56.773,183.273 56.916,183.038 56.916 C 182.400 56.916,180.604 57.872,180.604 58.211 C 180.604 58.373,180.246 58.506,179.809 58.506 C 179.372 58.506,179.014 58.649,179.014 58.824 C 179.014 58.998,178.865 59.141,178.683 59.141 C 178.371 59.141,178.011 59.390,176.959 60.334 C 176.715 60.552,176.397 60.731,176.252 60.731 C 176.106 60.731,175.601 61.089,175.130 61.526 C 174.658 61.963,174.184 62.321,174.076 62.321 C 173.896 62.321,169.883 66.371,168.346 68.104 C 166.365 70.337,165.724 72.209,166.799 72.621 C 168.006 73.084,178.060 72.831,178.060 72.337 C 178.060 72.075,178.210 71.860,178.393 71.860 C 178.576 71.860,179.083 71.502,179.520 71.065 C 179.957 70.628,180.492 70.270,180.707 70.270 C 180.923 70.270,181.306 69.984,181.558 69.634 C 181.810 69.285,182.165 68.998,182.347 68.998 C 182.529 68.998,183.063 68.641,183.535 68.203 C 184.006 67.766,184.684 67.409,185.042 67.409 C 185.399 67.409,185.692 67.266,185.692 67.091 C 185.692 66.916,185.889 66.773,186.130 66.773 C 186.370 66.773,186.746 66.558,186.963 66.296 C 187.181 66.033,187.628 65.819,187.956 65.819 C 188.285 65.819,188.553 65.676,188.553 65.501 C 188.553 65.326,188.974 65.183,189.488 65.183 C 190.003 65.183,190.512 65.040,190.620 64.865 C 190.728 64.690,191.227 64.547,191.729 64.547 C 192.231 64.547,192.856 64.332,193.118 64.070 C 193.468 63.720,194.322 63.593,196.321 63.593 C 197.926 63.593,199.046 63.462,199.046 63.275 C 199.046 63.100,199.395 62.957,199.822 62.957 C 200.249 62.957,200.687 63.100,200.795 63.275 C 200.903 63.450,202.066 63.593,203.380 63.593 C 205.079 63.593,205.906 63.731,206.246 64.070 C 206.508 64.332,207.133 64.547,207.635 64.547 C 208.137 64.547,208.636 64.690,208.744 64.865 C 208.852 65.040,209.281 65.183,209.698 65.183 C 210.114 65.183,210.544 65.326,210.652 65.501 C 210.760 65.676,211.180 65.819,211.586 65.819 C 211.991 65.819,212.501 66.033,212.719 66.296 C 212.936 66.558,213.259 66.773,213.435 66.773 C 213.611 66.773,214.453 67.273,215.305 67.886 C 216.157 68.498,216.965 68.998,217.101 68.998 C 217.237 68.998,217.554 69.285,217.806 69.634 C 218.058 69.984,218.436 70.270,218.647 70.270 C 218.857 70.270,219.593 70.846,220.283 71.550 L 221.537 72.829 227.223 72.742 L 232.909 72.655 233.009 71.622 C 233.065 71.041,232.960 70.588,232.771 70.588 C 232.585 70.588,232.432 70.374,232.432 70.111 C 232.432 69.849,232.218 69.634,231.955 69.634 C 231.691 69.634,231.479 69.352,231.479 68.998 C 231.479 68.649,231.335 68.362,231.161 68.362 C 230.986 68.362,230.843 68.209,230.843 68.022 C 230.843 67.582,230.034 66.773,229.593 66.773 C 229.406 66.773,229.253 66.623,229.253 66.440 C 229.253 66.009,227.791 64.547,227.359 64.547 C 227.177 64.547,227.027 64.394,227.027 64.206 C 227.027 63.836,226.245 62.957,225.916 62.957 C 225.804 62.957,225.240 62.456,224.663 61.844 C 224.086 61.232,223.445 60.731,223.238 60.731 C 223.032 60.731,222.532 60.374,222.126 59.936 C 221.721 59.499,221.156 59.141,220.870 59.141 C 220.584 59.141,220.350 58.998,220.350 58.824 C 220.350 58.649,220.059 58.506,219.704 58.506 C 219.349 58.506,218.976 58.291,218.875 58.029 C 218.774 57.766,218.521 57.552,218.312 57.552 C 217.754 57.552,216.222 56.795,216.219 56.518 C 216.217 56.387,215.802 56.280,215.296 56.280 C 214.772 56.280,214.298 56.075,214.193 55.803 C 214.093 55.541,213.657 55.326,213.224 55.326 C 212.792 55.326,212.350 55.183,212.242 55.008 C 212.134 54.833,211.481 54.690,210.792 54.690 C 210.103 54.690,209.539 54.561,209.539 54.404 C 209.539 54.247,208.537 54.018,207.312 53.895 C 206.087 53.772,205.006 53.543,204.908 53.386 C 204.681 53.017,196.802 53.021,196.219 53.390 M206.114 55.347 C 206.684 55.510,207.608 55.644,208.167 55.644 C 208.726 55.644,209.272 55.787,209.380 55.962 C 209.488 56.137,209.890 56.280,210.273 56.280 C 212.082 56.280,221.043 60.541,222.258 61.978 C 222.345 62.081,223.215 62.759,224.191 63.485 C 225.958 64.798,229.935 68.971,230.843 70.462 C 231.561 71.643,230.939 71.850,226.649 71.855 L 222.932 71.860 221.478 70.601 C 219.558 68.940,216.063 66.455,215.646 66.455 C 215.464 66.455,215.268 66.347,215.209 66.216 C 214.905 65.531,209.980 63.572,206.995 62.949 C 206.033 62.748,204.729 62.453,204.097 62.294 C 202.601 61.916,197.211 61.920,195.474 62.300 C 187.097 64.131,183.169 66.036,177.755 70.891 L 176.654 71.878 172.671 71.790 C 169.132 71.711,168.676 71.638,168.579 71.130 C 168.410 70.250,172.230 65.908,175.358 63.424 C 176.232 62.730,177.019 62.089,177.107 62.000 C 179.945 59.109,189.548 55.747,197.456 54.876 C 199.126 54.693,204.933 55.008,206.114 55.347 M156.554 78.378 C 156.453 78.641,156.171 78.855,155.928 78.855 C 155.661 78.855,155.485 79.190,155.485 79.698 C 155.485 80.591,158.685 83.943,159.539 83.943 C 159.773 83.943,160.323 84.300,160.760 84.738 C 161.197 85.175,161.763 85.533,162.018 85.533 C 162.272 85.533,162.480 85.676,162.480 85.851 C 162.480 86.025,162.766 86.169,163.116 86.169 C 163.466 86.169,163.752 86.284,163.752 86.425 C 163.752 86.567,164.360 86.933,165.103 87.239 C 165.847 87.545,166.703 87.931,167.007 88.095 C 167.310 88.260,167.903 88.394,168.324 88.394 C 168.745 88.394,169.172 88.609,169.272 88.871 C 169.476 89.403,167.752 89.586,167.431 89.067 C 167.336 88.912,166.862 88.714,166.379 88.626 C 164.848 88.349,160.747 86.781,158.237 85.514 C 157.565 85.174,156.875 84.897,156.704 84.897 C 156.533 84.897,156.179 84.682,155.916 84.420 C 155.654 84.157,155.104 83.943,154.694 83.943 C 154.284 83.943,153.900 83.835,153.842 83.704 C 153.704 83.393,151.458 81.717,151.178 81.717 C 151.060 81.717,150.042 81.073,148.916 80.286 C 146.658 78.708,146.287 78.617,145.140 79.369 C 144.125 80.034,144.130 81.175,145.151 81.978 C 145.588 82.322,145.946 82.697,145.946 82.811 C 145.946 83.148,147.478 84.579,147.839 84.579 C 148.022 84.579,148.172 84.724,148.172 84.902 C 148.172 85.251,150.634 87.702,151.912 88.624 C 152.342 88.935,152.882 89.368,153.113 89.587 C 153.343 89.805,153.624 89.984,153.736 89.984 C 153.849 89.984,154.140 90.163,154.384 90.382 C 155.364 91.261,155.786 91.574,155.991 91.574 C 156.109 91.574,156.437 91.840,156.719 92.164 C 157.002 92.489,157.556 92.856,157.949 92.981 C 158.343 93.105,158.665 93.340,158.665 93.503 C 158.665 93.666,159.022 93.800,159.459 93.800 C 159.897 93.800,160.254 93.943,160.254 94.118 C 160.254 94.293,160.525 94.436,160.856 94.436 C 161.187 94.436,161.541 94.650,161.641 94.913 C 161.742 95.175,162.115 95.390,162.470 95.390 C 162.825 95.390,163.116 95.533,163.116 95.707 C 163.116 95.882,163.474 96.025,163.911 96.025 C 164.348 96.025,164.706 96.169,164.706 96.343 C 164.706 96.518,165.207 96.661,165.819 96.661 C 166.596 96.661,166.932 96.805,166.932 97.138 C 166.932 97.435,167.232 97.615,167.727 97.615 C 168.164 97.615,168.521 97.758,168.521 97.933 C 168.521 98.108,168.961 98.251,169.498 98.251 C 170.035 98.251,170.689 98.466,170.952 98.728 C 171.376 99.152,171.252 99.205,169.843 99.205 C 168.912 99.205,168.205 99.051,168.132 98.832 C 168.061 98.620,167.129 98.400,165.959 98.321 C 164.833 98.244,163.775 98.055,163.609 97.899 C 163.443 97.743,162.700 97.615,161.958 97.615 C 161.217 97.615,160.521 97.472,160.413 97.297 C 160.305 97.122,159.653 96.979,158.964 96.979 C 158.062 96.979,157.711 96.846,157.711 96.502 C 157.711 96.206,157.410 96.025,156.916 96.025 C 156.479 96.025,156.121 95.882,156.121 95.707 C 156.121 95.533,155.847 95.390,155.511 95.390 C 155.176 95.390,154.854 95.282,154.796 95.151 C 154.646 94.814,152.657 93.800,152.147 93.800 C 151.913 93.800,151.675 93.678,151.616 93.529 C 151.461 93.132,148.892 91.574,148.392 91.574 C 147.750 91.574,146.330 93.218,146.820 93.393 C 147.039 93.471,147.218 93.823,147.218 94.176 C 147.218 94.957,151.834 99.579,153.233 100.198 C 153.772 100.437,154.213 100.730,154.213 100.849 C 154.213 101.129,156.087 102.067,156.647 102.067 C 156.882 102.067,157.075 102.210,157.075 102.385 C 157.075 102.560,157.417 102.703,157.836 102.703 C 158.254 102.703,158.679 102.917,158.780 103.180 C 158.880 103.442,159.253 103.657,159.608 103.657 C 159.964 103.657,160.254 103.800,160.254 103.975 C 160.254 104.149,160.898 104.293,161.685 104.293 C 162.472 104.293,163.116 104.424,163.116 104.585 C 163.116 104.986,165.721 105.613,168.124 105.790 C 169.217 105.871,170.111 106.058,170.111 106.206 C 170.111 106.702,184.053 107.330,184.528 106.856 C 185.692 105.691,185.692 105.681,185.692 133.501 L 185.692 160.484 184.897 160.332 C 184.459 160.249,184.102 160.063,184.102 159.921 C 184.102 159.778,183.799 159.565,183.429 159.448 C 183.058 159.330,182.072 158.569,181.237 157.757 C 180.402 156.944,179.310 155.908,178.810 155.453 C 177.008 153.813,174.245 150.635,174.245 150.203 C 174.245 149.960,174.136 149.762,174.002 149.762 C 173.868 149.762,173.511 149.189,173.208 148.490 C 172.905 147.790,172.513 147.218,172.338 147.218 C 172.163 147.218,172.019 146.789,172.019 146.264 C 172.019 145.739,171.876 145.310,171.701 145.310 C 171.526 145.310,171.383 144.952,171.383 144.515 C 171.383 144.078,171.256 143.720,171.101 143.720 C 170.946 143.720,170.718 143.041,170.595 142.210 C 170.471 141.379,170.255 140.556,170.114 140.382 C 169.676 139.836,169.534 136.946,169.347 124.679 C 169.222 116.533,169.051 112.656,168.804 112.358 C 168.189 111.617,160.732 111.750,159.909 112.517 C 158.736 113.610,159.364 142.946,160.569 143.348 C 160.746 143.407,160.890 144.007,160.890 144.682 C 160.890 145.356,161.033 145.997,161.208 146.105 C 161.383 146.213,161.526 146.633,161.526 147.039 C 161.526 147.444,161.741 147.954,162.003 148.172 C 162.266 148.389,162.480 148.908,162.480 149.324 C 162.480 149.739,162.623 150.079,162.798 150.079 C 162.973 150.079,163.116 150.437,163.116 150.874 C 163.116 151.312,163.259 151.669,163.434 151.669 C 163.609 151.669,163.752 151.960,163.752 152.315 C 163.752 152.670,163.942 153.034,164.175 153.123 C 164.407 153.213,164.792 153.780,165.029 154.385 C 165.266 154.990,165.577 155.485,165.719 155.485 C 165.861 155.485,165.978 155.693,165.978 155.947 C 165.978 156.202,166.335 156.768,166.773 157.205 C 167.210 157.642,167.568 158.149,167.568 158.332 C 167.568 158.515,167.782 158.665,168.045 158.665 C 168.307 158.665,168.521 158.890,168.521 159.166 C 168.521 159.675,173.395 164.706,173.888 164.706 C 174.035 164.706,174.687 165.207,175.336 165.819 C 175.985 166.431,176.720 166.932,176.970 166.932 C 177.220 166.932,177.424 167.075,177.424 167.250 C 177.424 167.424,177.639 167.568,177.901 167.568 C 178.164 167.568,178.378 167.678,178.378 167.813 C 178.378 167.948,178.915 168.322,179.571 168.643 C 180.227 168.965,181.012 169.355,181.315 169.511 C 181.619 169.666,182.160 169.793,182.518 169.793 C 182.875 169.793,183.250 170.008,183.351 170.270 C 183.451 170.533,183.876 170.747,184.295 170.747 C 184.713 170.747,185.056 170.890,185.056 171.065 C 185.056 171.240,185.556 171.383,186.169 171.383 C 186.781 171.383,187.281 171.526,187.281 171.701 C 187.281 171.876,187.854 172.019,188.553 172.019 C 189.838 172.019,190.248 171.613,189.322 171.258 C 189.046 171.152,188.473 171.065,188.050 171.065 C 187.627 171.065,187.281 170.922,187.281 170.747 C 187.281 170.572,186.852 170.429,186.328 170.429 C 185.803 170.429,185.374 170.286,185.374 170.111 C 185.374 169.936,185.241 169.793,185.078 169.793 C 182.365 169.793,172.921 162.649,168.636 157.355 C 166.391 154.581,163.325 148.146,162.215 143.879 C 162.033 143.180,161.696 141.892,161.467 141.017 C 161.155 139.831,161.049 136.163,161.049 126.550 L 161.049 113.672 163.752 113.579 C 168.323 113.420,167.806 111.860,167.977 126.311 C 168.132 139.304,168.115 139.130,169.713 144.038 C 171.426 149.297,174.372 153.665,178.855 157.594 C 181.321 159.755,184.440 161.844,185.199 161.844 C 185.470 161.844,185.692 161.987,185.692 162.162 C 185.692 162.337,185.907 162.480,186.170 162.480 C 186.593 162.480,186.639 159.196,186.568 134.102 L 186.486 105.723 179.650 105.503 C 171.409 105.237,166.389 104.615,164.631 103.644 C 164.327 103.476,163.727 103.339,163.298 103.339 C 162.869 103.339,162.429 103.196,162.321 103.021 C 162.213 102.846,161.903 102.703,161.633 102.703 C 161.015 102.703,154.694 99.561,153.962 98.889 C 153.663 98.615,152.875 97.980,152.211 97.477 C 151.046 96.595,150.200 95.481,150.482 95.199 C 150.626 95.055,151.912 95.551,155.008 96.947 C 156.728 97.723,157.496 97.982,160.731 98.876 C 161.827 99.179,165.566 99.948,168.382 100.451 C 171.204 100.955,181.789 100.876,182.989 100.342 C 184.140 99.830,183.760 99.625,181.240 99.400 C 177.213 99.040,171.311 97.649,170.541 96.879 C 170.421 96.759,170.065 96.661,169.749 96.661 C 168.330 96.661,160.164 92.534,156.594 90.011 C 151.573 86.464,147.056 81.659,150.630 83.666 C 152.139 84.514,158.154 87.539,159.618 88.187 C 160.859 88.736,164.033 89.814,166.455 90.510 C 168.229 91.019,178.245 91.471,180.090 91.125 C 181.923 90.781,181.521 90.098,179.341 89.851 C 172.771 89.108,166.110 86.502,160.310 82.406 C 157.646 80.525,157.402 80.271,157.907 79.902 C 158.496 79.471,252.439 79.258,253.551 79.684 C 254.626 80.097,253.892 85.846,252.094 91.102 C 249.957 97.346,245.567 102.239,240.223 104.334 C 238.189 105.130,235.387 105.333,224.660 105.458 C 217.326 105.544,213.409 105.706,213.134 105.933 C 212.491 106.467,212.523 161.604,213.167 162.139 C 213.474 162.393,213.681 162.406,213.822 162.178 C 213.935 161.994,214.306 161.844,214.645 161.844 C 214.985 161.844,215.262 161.734,215.262 161.599 C 215.262 161.463,215.799 161.071,216.455 160.727 C 217.110 160.383,217.719 160.021,217.806 159.923 C 217.893 159.824,218.537 159.322,219.237 158.807 C 221.241 157.331,225.309 153.097,226.045 151.721 C 226.233 151.370,226.569 150.893,226.793 150.661 C 227.446 149.981,229.491 145.644,230.216 143.402 C 231.462 139.549,231.578 138.240,231.767 125.914 L 231.955 113.672 235.294 113.672 L 238.633 113.672 238.734 124.801 C 238.854 138.143,238.652 140.250,236.669 146.264 C 235.863 148.708,233.787 153.074,232.715 154.580 C 232.385 155.044,232.114 155.581,232.114 155.772 C 232.114 155.964,232.002 156.121,231.865 156.121 C 231.728 156.121,231.361 156.552,231.050 157.078 C 229.806 159.185,223.408 165.158,220.827 166.623 C 217.793 168.346,213.504 170.429,212.993 170.429 C 212.688 170.429,212.361 170.554,212.267 170.705 C 212.174 170.857,211.521 171.074,210.818 171.186 C 210.114 171.299,209.539 171.532,209.539 171.705 C 209.539 171.878,208.824 172.019,207.949 172.019 C 207.075 172.019,206.359 172.159,206.359 172.330 C 206.359 172.521,203.861 172.675,199.947 172.728 C 195.162 172.792,193.501 172.915,193.402 173.211 C 193.299 173.521,194.688 173.609,199.656 173.609 C 203.701 173.609,206.041 173.492,206.041 173.291 C 206.041 173.116,206.761 172.973,207.641 172.973 C 208.770 172.973,209.295 172.833,209.424 172.496 C 209.548 172.174,210.053 172.019,210.985 172.019 C 211.743 172.019,212.452 171.876,212.560 171.701 C 212.668 171.526,213.105 171.383,213.532 171.383 C 213.959 171.383,214.308 171.240,214.308 171.065 C 214.308 170.890,214.742 170.747,215.272 170.747 C 215.836 170.747,216.312 170.549,216.419 170.270 C 216.520 170.008,216.945 169.793,217.363 169.793 C 217.782 169.793,218.124 169.650,218.124 169.475 C 218.124 169.300,218.410 169.157,218.760 169.157 C 219.110 169.157,219.396 169.048,219.396 168.915 C 219.396 168.672,220.338 168.098,221.383 167.703 C 221.689 167.588,221.940 167.367,221.940 167.213 C 221.940 167.058,222.226 166.932,222.576 166.932 C 222.929 166.932,223.211 166.720,223.211 166.455 C 223.211 166.192,223.426 165.978,223.688 165.978 C 223.951 165.978,224.165 165.835,224.165 165.660 C 224.165 165.485,224.380 165.342,224.642 165.342 C 225.399 165.342,231.479 159.149,231.479 158.378 C 231.479 158.011,231.641 157.711,231.839 157.711 C 232.276 157.711,233.639 156.176,233.887 155.405 C 233.985 155.099,234.199 154.849,234.362 154.849 C 234.525 154.849,234.658 154.491,234.658 154.054 C 234.658 153.617,234.801 153.259,234.976 153.259 C 235.151 153.259,235.294 152.901,235.294 152.464 C 235.294 151.970,235.474 151.669,235.771 151.669 C 236.036 151.669,236.248 151.387,236.248 151.033 C 236.248 150.684,236.391 150.397,236.566 150.397 C 236.741 150.397,236.884 150.120,236.884 149.780 C 236.884 149.441,237.027 149.075,237.202 148.967 C 237.377 148.859,237.520 148.438,237.520 148.033 C 237.520 147.627,237.734 147.118,237.997 146.900 C 238.259 146.682,238.474 146.101,238.474 145.608 C 238.474 145.115,238.617 144.623,238.792 144.515 C 238.967 144.407,239.110 143.480,239.110 142.456 C 239.110 141.249,239.249 140.547,239.507 140.461 C 239.931 140.320,240.296 115.095,239.906 112.957 L 239.717 111.924 235.509 111.924 C 229.649 111.924,230.207 110.504,230.207 125.422 C 230.207 132.143,230.084 137.717,229.934 137.810 C 229.784 137.902,229.578 138.790,229.476 139.782 C 229.373 140.773,229.138 141.736,228.953 141.921 C 228.768 142.106,228.617 142.730,228.617 143.307 C 228.617 143.884,228.474 144.356,228.299 144.356 C 228.124 144.356,227.981 144.842,227.981 145.435 C 227.981 146.101,227.798 146.584,227.504 146.697 C 227.242 146.798,227.027 147.171,227.027 147.526 C 227.027 147.881,226.884 148.172,226.709 148.172 C 226.534 148.172,226.391 148.386,226.391 148.649 C 226.391 148.911,226.248 149.126,226.073 149.126 C 225.898 149.126,225.755 149.347,225.755 149.618 C 225.755 149.888,225.397 150.441,224.960 150.847 C 224.523 151.252,224.165 151.738,224.165 151.927 C 224.165 152.514,218.216 158.273,217.025 158.838 C 216.406 159.132,215.898 159.571,215.898 159.814 C 215.898 160.072,215.569 160.254,215.103 160.254 L 214.308 160.254 214.308 133.386 L 214.308 106.518 226.213 106.518 C 233.807 106.518,238.189 106.403,238.315 106.200 C 238.423 106.025,239.147 105.882,239.923 105.882 C 240.700 105.882,241.335 105.755,241.335 105.599 C 241.335 105.443,241.693 105.226,242.130 105.116 C 242.568 105.006,242.925 104.776,242.925 104.604 C 242.925 104.433,243.176 104.288,243.482 104.282 C 244.169 104.270,245.151 103.554,245.151 103.065 C 245.151 102.866,245.449 102.703,245.813 102.703 C 246.481 102.703,249.598 99.717,249.608 99.067 C 249.611 98.881,249.969 98.391,250.403 97.979 C 250.837 97.568,251.192 96.959,251.192 96.628 C 251.192 96.297,251.335 96.025,251.510 96.025 C 251.685 96.025,251.828 95.872,251.828 95.685 C 251.828 95.497,252.043 95.129,252.305 94.867 C 252.568 94.605,252.782 94.043,252.782 93.618 C 252.782 93.193,252.925 92.846,253.100 92.846 C 253.275 92.846,253.418 92.558,253.418 92.206 C 253.418 91.853,253.551 91.317,253.713 91.013 C 254.381 89.763,255.008 87.052,255.008 85.412 C 255.008 84.450,255.151 83.574,255.326 83.466 C 255.925 83.096,255.711 79.015,255.062 78.428 C 254.213 77.659,156.848 77.610,156.554 78.378 M190.143 172.513 C 190.143 172.904,190.455 172.987,191.629 172.911 C 193.750 172.773,193.860 172.019,191.759 172.019 C 190.509 172.019,190.143 172.131,190.143 172.513 M169.206 190.737 C 168.591 191.270,168.521 191.652,168.521 194.489 C 168.521 198.431,168.502 198.410,172.242 198.410 L 175.199 198.410 175.199 212.337 C 175.199 222.745,175.295 226.360,175.580 226.645 C 175.837 226.902,177.290 227.027,180.032 227.027 L 184.102 227.027 184.152 214.388 C 184.179 207.436,184.183 201.534,184.159 201.272 C 184.136 201.010,184.278 200.478,184.475 200.090 C 184.748 199.553,184.737 199.270,184.429 198.898 C 184.069 198.465,184.385 198.410,187.231 198.410 C 191.105 198.410,191.097 198.419,191.097 194.353 C 191.097 189.894,191.768 190.143,179.758 190.143 C 170.581 190.143,169.843 190.185,169.206 190.737 M209.778 190.771 C 209.005 191.674,208.888 225.785,209.655 226.552 C 210.316 227.214,227.192 227.243,228.060 226.584 C 228.851 225.984,228.898 219.254,228.114 218.953 C 227.837 218.847,225.476 218.760,222.867 218.760 L 218.124 218.760 218.124 215.421 L 218.124 212.083 223.014 212.083 C 228.991 212.083,228.667 212.346,228.548 207.586 L 228.458 203.975 223.291 203.887 L 218.124 203.800 218.124 201.105 L 218.124 198.410 223.370 198.410 L 228.617 198.410 228.617 194.916 C 228.617 189.766,229.382 190.143,218.919 190.143 C 210.744 190.143,210.289 190.174,209.778 190.771 M189.373 191.873 C 189.946 192.655,189.959 196.141,189.392 196.887 C 189.068 197.313,188.370 197.450,186.143 197.523 L 183.307 197.615 183.226 211.288 C 183.133 227.045,183.440 225.755,179.787 225.755 C 176.573 225.755,176.807 226.859,176.713 211.259 L 176.630 197.615 173.620 197.523 C 170.102 197.415,170.121 197.432,170.121 194.436 C 170.121 191.287,169.823 191.444,176.007 191.343 C 187.800 191.152,188.877 191.195,189.373 191.873 M226.963 191.797 C 227.433 192.266,227.472 195.989,227.016 196.841 C 226.713 197.407,226.308 197.456,221.965 197.456 C 216.504 197.456,216.861 197.201,216.861 201.113 C 216.861 205.015,216.529 204.769,221.795 204.769 C 227.388 204.769,227.413 204.784,227.279 208.056 C 227.157 211.020,226.969 211.118,221.398 211.124 L 217.199 211.129 216.994 212.220 C 216.618 214.223,216.958 219.386,217.488 219.721 C 217.750 219.887,219.904 220.024,222.273 220.027 C 227.356 220.033,227.345 220.026,227.345 222.918 C 227.345 225.904,227.730 225.780,218.720 225.681 L 210.970 225.596 210.887 208.903 C 210.842 199.722,210.873 192.031,210.957 191.812 C 211.171 191.253,226.405 191.238,226.963 191.797 " stroke="none" fill="#999999" fill-rule="evenodd"></path><path id="path1" d="M199.046 55.206 C 198.784 55.278,197.067 55.541,195.231 55.791 C 187.773 56.807,184.272 58.049,178.719 61.652 C 175.657 63.638,170.858 68.126,169.819 69.975 L 169.117 71.224 172.897 71.224 C 176.553 71.224,176.703 71.197,177.449 70.402 C 180.759 66.869,187.444 63.429,193.725 62.024 C 195.696 61.583,204.008 61.587,205.957 62.029 C 212.187 63.444,215.919 65.319,221.555 69.867 L 223.236 71.224 226.721 71.224 C 231.039 71.224,231.037 71.235,227.484 67.460 C 221.736 61.355,214.307 57.136,207.472 56.096 C 202.195 55.292,199.693 55.028,199.046 55.206 M158.736 80.562 C 159.762 81.588,163.628 84.004,166.208 85.230 C 167.743 85.960,169.213 86.660,169.475 86.784 C 171.516 87.754,178.285 89.348,180.364 89.348 C 183.275 89.348,183.879 90.746,181.301 91.518 C 175.747 93.182,164.648 91.297,156.261 87.266 C 154.227 86.288,152.496 85.554,152.415 85.635 C 151.877 86.173,159.837 91.733,163.752 93.554 C 167.578 95.334,168.208 95.591,171.224 96.599 C 174.805 97.796,181.477 99.199,183.644 99.210 C 185.088 99.217,185.664 99.687,185.020 100.331 C 183.452 101.899,171.478 101.987,164.853 100.479 C 158.602 99.056,156.556 98.419,153.339 96.893 C 152.946 96.707,152.529 96.650,152.412 96.767 C 152.295 96.884,152.373 96.979,152.585 96.979 C 152.798 96.979,153.287 97.332,153.672 97.763 C 154.898 99.136,161.358 102.333,164.388 103.066 C 170.809 104.620,173.004 104.893,181.003 105.129 C 186.777 105.300,186.972 105.328,187.132 105.992 C 187.670 108.221,187.110 162.633,186.548 162.741 C 183.315 163.363,173.729 154.397,170.631 147.854 C 167.737 141.740,167.505 140.195,167.350 125.994 L 167.221 114.149 166.520 114.125 C 166.134 114.111,165.032 114.059,164.070 114.010 C 163.108 113.961,162.142 113.988,161.924 114.069 C 161.397 114.266,161.356 136.860,161.876 139.726 C 166.664 166.082,193.534 179.699,217.329 167.829 C 223.130 164.935,229.316 159.335,232.192 154.374 C 233.788 151.621,235.438 148.129,236.088 146.129 C 237.984 140.299,237.973 140.408,237.986 126.868 L 237.997 114.308 235.951 114.113 C 234.826 114.006,233.539 114.016,233.090 114.136 L 232.273 114.354 232.089 126.891 C 231.988 133.786,231.762 140.000,231.586 140.700 C 229.900 147.429,226.706 152.804,221.669 157.389 C 218.102 160.636,214.504 162.917,213.234 162.735 L 212.560 162.639 212.560 134.022 L 212.560 105.405 223.052 105.211 C 228.824 105.104,234.620 104.865,235.934 104.679 C 245.896 103.268,251.971 95.323,253.550 81.638 L 253.724 80.127 206.013 80.127 C 165.682 80.127,158.368 80.194,158.736 80.562 M170.879 192.484 C 170.788 192.722,170.756 193.759,170.810 194.789 L 170.906 196.661 173.860 196.820 C 176.009 196.936,176.896 197.109,177.114 197.456 C 177.291 197.736,177.417 203.547,177.420 211.526 L 177.424 225.119 179.809 225.119 C 181.121 225.119,182.202 225.012,182.211 224.881 C 182.220 224.750,182.268 218.592,182.317 211.197 C 182.420 195.732,182.090 197.042,185.945 196.820 L 188.712 196.661 188.806 194.356 L 188.899 192.051 179.972 192.051 C 172.733 192.051,171.014 192.133,170.879 192.484 M211.346 192.257 C 211.227 192.377,211.129 199.820,211.129 208.797 L 211.129 225.119 218.933 225.119 L 226.738 225.119 226.644 222.973 L 226.550 220.827 221.908 220.668 C 215.893 220.462,216.216 220.760,216.216 215.421 C 216.216 210.083,215.893 210.381,221.907 210.175 L 226.550 210.016 226.644 208.048 C 226.767 205.475,226.577 205.378,221.553 205.453 C 216.160 205.533,216.216 205.578,216.216 201.245 C 216.216 196.725,216.097 196.822,221.647 196.815 C 226.841 196.810,226.768 196.847,226.646 194.248 L 226.550 192.210 219.057 192.125 C 214.936 192.078,211.466 192.138,211.346 192.257 " stroke="none" fill="#fbfbfb" fill-rule="evenodd"></path><path id="path2" d="M199.285 54.920 C 199.853 54.991,200.783 54.991,201.351 54.920 C 201.920 54.849,201.455 54.792,200.318 54.792 C 199.181 54.792,198.716 54.849,199.285 54.920 M194.754 62.321 C 194.353 62.493,194.294 62.594,194.595 62.594 C 194.857 62.594,195.358 62.471,195.707 62.321 C 196.108 62.149,196.167 62.048,195.866 62.048 C 195.604 62.048,195.103 62.171,194.754 62.321 M226.391 65.660 C 227.341 66.622,228.190 67.409,228.277 67.409 C 228.365 67.409,227.659 66.622,226.709 65.660 C 225.759 64.698,224.910 63.911,224.823 63.911 C 224.736 63.911,225.441 64.698,226.391 65.660 M170.840 71.778 C 172.028 71.840,173.888 71.839,174.973 71.777 C 176.059 71.715,175.087 71.665,172.814 71.666 C 170.541 71.666,169.652 71.717,170.840 71.778 M224.722 71.778 C 225.815 71.840,227.603 71.840,228.696 71.778 C 229.789 71.715,228.895 71.665,226.709 71.665 C 224.523 71.665,223.629 71.715,224.722 71.778 M181.931 79.730 C 194.989 79.776,216.452 79.776,229.625 79.730 C 242.799 79.684,232.114 79.646,205.882 79.646 C 179.650 79.646,168.872 79.684,181.931 79.730 M173.384 91.492 C 174.571 91.553,176.431 91.553,177.517 91.491 C 178.603 91.429,177.631 91.379,175.358 91.380 C 173.084 91.380,172.196 91.431,173.384 91.492 M150.397 95.372 C 150.397 95.537,150.719 96.009,151.113 96.421 C 151.506 96.833,151.619 96.903,151.364 96.578 C 150.990 96.101,150.979 95.937,151.311 95.732 C 151.630 95.535,151.603 95.432,151.193 95.275 C 150.491 95.005,150.397 95.017,150.397 95.372 M183.625 99.841 C 183.733 100.016,183.646 100.159,183.432 100.159 C 183.217 100.159,183.117 100.234,183.208 100.325 C 183.479 100.596,184.432 100.118,184.240 99.808 C 184.143 99.651,183.921 99.523,183.746 99.523 C 183.571 99.523,183.517 99.666,183.625 99.841 M167.409 100.477 C 168.754 100.819,169.908 100.819,168.839 100.477 C 168.402 100.337,167.687 100.225,167.250 100.228 C 166.536 100.234,166.552 100.259,167.409 100.477 M173.847 101.030 C 174.940 101.092,176.729 101.092,177.822 101.030 C 178.915 100.968,178.021 100.917,175.835 100.917 C 173.649 100.917,172.754 100.968,173.847 101.030 M234.817 105.246 C 234.416 105.419,234.358 105.520,234.658 105.520 C 234.921 105.520,235.421 105.397,235.771 105.246 C 236.172 105.074,236.231 104.973,235.930 104.973 C 235.668 104.973,235.167 105.096,234.817 105.246 M186.798 134.181 C 186.798 149.483,186.836 155.743,186.884 148.092 C 186.931 140.441,186.931 127.921,186.884 120.270 C 186.836 112.619,186.798 118.879,186.798 134.181 M160.989 136.248 C 160.991 137.297,161.050 137.688,161.121 137.117 C 161.192 136.545,161.190 135.687,161.117 135.209 C 161.045 134.731,160.987 135.199,160.989 136.248 M238.548 136.725 C 238.548 137.337,238.613 137.587,238.693 137.281 C 238.773 136.975,238.773 136.475,238.693 136.169 C 238.613 135.862,238.548 136.113,238.548 136.725 M168.248 139.587 C 168.248 139.849,168.371 140.350,168.521 140.700 C 168.694 141.100,168.795 141.159,168.795 140.859 C 168.795 140.596,168.672 140.095,168.521 139.746 C 168.349 139.345,168.248 139.286,168.248 139.587 M221.781 165.847 L 220.827 166.666 221.860 165.982 C 222.428 165.606,222.893 165.237,222.893 165.161 C 222.893 164.923,222.759 165.006,221.781 165.847 M189.621 171.542 C 189.902 171.823,190.596 171.998,191.313 171.968 L 192.528 171.917 191.415 171.787 C 190.803 171.715,190.166 171.523,190.000 171.360 C 189.834 171.198,189.573 171.065,189.421 171.065 C 189.268 171.065,189.358 171.280,189.621 171.542 M207.393 171.920 C 207.699 172.000,208.200 172.000,208.506 171.920 C 208.812 171.840,208.561 171.775,207.949 171.775 C 207.337 171.775,207.087 171.840,207.393 171.920 M187.043 191.316 C 187.349 191.396,187.850 191.396,188.156 191.316 C 188.462 191.236,188.211 191.171,187.599 191.171 C 186.987 191.171,186.737 191.236,187.043 191.316 M226.614 191.746 C 226.823 192.016,227.046 193.232,227.108 194.449 L 227.220 196.661 227.283 194.395 C 227.333 192.565,227.238 192.045,226.789 191.692 C 226.301 191.310,226.279 191.316,226.614 191.746 M189.504 194.501 C 189.418 195.761,189.463 196.676,189.603 196.535 C 189.743 196.394,189.813 195.363,189.758 194.244 L 189.659 192.210 189.504 194.501 M182.830 211.670 C 182.742 219.224,182.780 225.297,182.913 225.164 C 183.046 225.030,183.117 218.849,183.072 211.427 L 182.989 197.933 182.830 211.670 M220.111 205.005 C 221.292 205.066,223.223 205.066,224.404 205.005 C 225.584 204.944,224.618 204.894,222.258 204.894 C 219.897 204.894,218.931 204.944,220.111 205.005 M227.089 207.854 C 227.040 209.655,226.908 210.212,226.471 210.467 C 226.165 210.646,226.075 210.796,226.273 210.801 C 227.068 210.823,227.373 209.878,227.263 207.739 L 227.152 205.564 227.089 207.854 M216.962 211.301 C 216.858 211.571,216.863 211.881,216.972 211.990 C 217.081 212.099,217.170 211.954,217.170 211.668 C 217.170 211.215,217.744 211.134,221.542 211.049 L 225.914 210.950 221.532 210.881 C 217.833 210.822,217.121 210.887,216.962 211.301 M226.868 222.844 L 226.868 225.278 220.350 225.447 L 213.831 225.616 220.207 225.686 C 224.822 225.736,226.687 225.650,226.963 225.374 C 227.380 224.957,227.503 220.803,227.107 220.557 C 226.975 220.476,226.868 221.505,226.868 222.844 M211.102 225.537 C 211.245 225.681,211.918 225.750,212.597 225.691 L 213.831 225.583 212.336 225.429 C 211.513 225.345,210.958 225.394,211.102 225.537 M180.052 225.665 C 180.535 225.738,181.251 225.737,181.642 225.661 C 182.033 225.586,181.638 225.526,180.763 225.528 C 179.889 225.531,179.569 225.592,180.052 225.665 " stroke="none" fill="#b4b4b4" fill-rule="evenodd"></path><path id="path3" d="M195.866 55.326 L 194.754 55.560 195.866 55.584 C 196.479 55.597,197.552 55.489,198.251 55.344 L 199.523 55.081 198.251 55.086 C 197.552 55.089,196.479 55.197,195.866 55.326 M202.226 55.323 C 203.188 55.478,204.976 55.750,206.200 55.929 C 207.424 56.107,208.927 56.327,209.539 56.417 L 210.652 56.580 209.539 56.244 C 208.152 55.826,205.251 55.390,202.544 55.192 L 200.477 55.042 202.226 55.323 M192.929 55.869 C 193.325 55.945,193.897 55.942,194.201 55.862 C 194.505 55.783,194.181 55.721,193.482 55.724 C 192.782 55.728,192.533 55.793,192.929 55.869 M190.461 56.280 C 189.361 56.511,189.359 56.514,190.302 56.551 C 190.827 56.571,191.471 56.449,191.733 56.280 C 192.262 55.938,192.087 55.938,190.461 56.280 M210.837 56.729 C 211.060 56.949,214.446 58.188,214.785 58.174 C 215.182 58.157,211.458 56.598,211.022 56.598 C 210.847 56.598,210.764 56.657,210.837 56.729 M184.738 58.044 C 182.861 59.017,183.211 59.016,185.558 58.042 C 186.593 57.612,187.154 57.270,186.804 57.281 C 186.455 57.292,185.525 57.635,184.738 58.044 M215.580 58.519 C 215.843 58.692,217.259 59.546,218.728 60.417 C 222.457 62.626,224.432 64.218,227.528 67.507 C 231.033 71.230,231.034 71.224,226.721 71.224 L 223.236 71.224 221.555 69.867 C 215.040 64.610,208.048 61.557,202.937 61.739 C 201.453 61.791,201.449 61.794,202.703 61.912 C 209.395 62.540,215.504 65.223,221.301 70.079 L 223.048 71.542 226.945 71.542 C 231.056 71.542,231.154 71.505,230.306 70.262 C 227.528 66.191,221.200 60.912,216.709 58.918 C 215.826 58.526,215.318 58.347,215.580 58.519 M182.049 59.240 C 177.047 62.287,175.680 63.337,172.417 66.638 C 167.663 71.447,167.669 71.542,172.738 71.542 L 176.637 71.542 177.905 70.415 C 183.375 65.555,189.740 62.693,196.820 61.910 C 197.872 61.794,197.859 61.784,196.586 61.736 C 191.549 61.546,181.473 66.108,177.449 70.402 C 176.703 71.197,176.553 71.224,172.897 71.224 L 169.117 71.224 169.819 69.975 C 171.232 67.460,180.257 59.777,181.799 59.777 C 181.949 59.777,182.350 59.567,182.690 59.311 C 183.426 58.754,182.936 58.700,182.049 59.240 M158.103 80.206 C 158.478 81.376,166.118 85.976,169.634 87.149 C 170.334 87.382,171.049 87.666,171.224 87.779 C 171.399 87.893,172.544 88.230,173.768 88.529 C 174.992 88.828,176.511 89.207,177.143 89.370 C 177.776 89.533,178.849 89.668,179.528 89.670 C 184.138 89.687,182.892 91.145,177.901 91.575 L 175.358 91.793 177.706 91.843 C 180.407 91.899,182.412 91.401,182.861 90.561 C 183.239 89.856,182.194 89.348,180.364 89.348 C 178.285 89.348,171.516 87.754,169.475 86.784 C 169.213 86.660,167.743 85.960,166.208 85.230 C 163.628 84.004,159.762 81.588,158.736 80.562 C 158.368 80.194,165.682 80.127,206.013 80.127 L 253.724 80.127 253.550 81.638 C 252.195 93.378,247.315 101.204,239.740 103.784 C 238.432 104.230,237.676 104.598,238.061 104.602 C 239.937 104.624,243.792 102.469,246.293 100.000 C 250.462 95.885,253.395 88.736,253.795 81.717 L 253.895 79.968 205.935 79.888 C 167.616 79.823,158.001 79.887,158.103 80.206 M151.397 85.386 C 155.399 89.656,168.752 97.297,172.211 97.297 C 172.460 97.297,172.912 97.428,173.216 97.587 C 173.974 97.985,177.391 98.709,177.587 98.512 C 177.675 98.425,176.923 98.175,175.916 97.957 C 168.600 96.373,157.786 91.026,153.320 86.782 C 151.713 85.257,152.241 85.335,156.170 87.204 C 160.577 89.301,161.814 89.803,162.035 89.582 C 162.128 89.488,161.659 89.234,160.991 89.017 C 160.324 88.800,157.669 87.570,155.091 86.283 C 152.514 84.996,150.324 83.943,150.225 83.943 C 150.126 83.943,150.653 84.592,151.397 85.386 M162.480 89.775 C 162.480 90.051,166.732 91.260,167.602 91.231 C 168.020 91.217,167.361 90.939,166.137 90.615 C 164.913 90.290,163.589 89.927,163.196 89.808 C 162.802 89.689,162.480 89.674,162.480 89.775 M169.157 91.576 C 169.932 91.822,175.118 92.005,174.854 91.777 C 174.781 91.714,173.291 91.586,171.542 91.493 C 169.789 91.399,168.719 91.436,169.157 91.576 M151.356 95.946 C 151.368 96.505,151.946 97.043,152.300 96.824 C 152.511 96.693,152.992 96.732,153.369 96.909 C 155.105 97.728,156.598 98.342,157.511 98.613 C 160.408 99.471,163.169 100.157,163.667 100.140 C 163.976 100.130,162.512 99.641,160.413 99.052 C 156.998 98.095,153.788 96.906,152.230 96.021 C 151.569 95.646,151.350 95.627,151.356 95.946 M152.305 97.122 C 152.305 97.201,153.200 97.894,154.293 98.663 C 158.428 101.573,164.377 103.845,169.475 104.463 C 170.653 104.605,168.314 103.936,165.501 103.325 C 161.946 102.554,155.057 99.315,153.672 97.763 C 153.054 97.071,152.305 96.720,152.305 97.122 M179.809 99.026 C 180.859 99.277,182.317 99.491,183.050 99.503 C 185.411 99.539,184.722 100.500,182.035 100.917 C 181.510 100.999,181.843 101.024,182.774 100.974 C 184.409 100.887,185.782 100.143,185.264 99.626 C 185.032 99.394,182.883 99.054,179.650 98.740 L 177.901 98.569 179.809 99.026 M165.183 100.477 C 167.556 101.268,176.372 101.918,179.173 101.509 C 180.805 101.271,180.391 101.225,176.312 101.187 C 173.688 101.163,170.469 100.996,169.157 100.815 C 164.087 100.119,164.118 100.122,165.183 100.477 M172.814 104.975 C 173.863 105.141,177.440 105.378,180.763 105.500 L 186.804 105.723 186.886 134.102 C 186.978 166.496,187.319 163.302,183.963 161.537 C 182.976 161.018,182.260 160.740,182.371 160.919 C 182.702 161.455,185.923 162.861,186.545 162.742 C 187.110 162.633,187.673 108.232,187.132 105.992 C 186.972 105.328,186.773 105.300,181.003 105.120 C 177.723 105.018,174.110 104.875,172.973 104.803 L 170.906 104.672 172.814 104.975 M234.208 104.849 C 234.077 104.980,229.153 105.159,223.265 105.246 L 212.560 105.405 212.560 134.022 L 212.560 162.639 213.234 162.735 C 214.504 162.917,218.102 160.636,221.669 157.389 C 224.641 154.683,227.557 150.897,228.936 147.953 C 229.494 146.762,230.080 145.539,230.238 145.235 C 230.396 144.931,230.519 144.430,230.511 144.122 C 230.504 143.814,230.145 144.420,229.714 145.469 C 229.283 146.518,228.549 148.092,228.083 148.967 C 227.327 150.385,226.846 151.106,225.119 153.405 C 222.925 156.326,217.472 160.800,214.532 162.090 C 212.578 162.947,212.719 165.130,212.719 134.038 L 212.719 105.595 223.609 105.461 C 229.599 105.387,235.143 105.184,235.930 105.008 L 237.361 104.690 235.904 104.650 C 235.102 104.628,234.339 104.718,234.208 104.849 M161.208 126.228 C 161.208 134.093,161.336 139.177,161.557 140.139 C 162.451 144.017,162.945 145.674,164.000 148.331 C 164.625 149.905,165.361 151.578,165.636 152.048 C 165.912 152.519,166.709 153.876,167.409 155.064 C 170.885 160.969,179.485 167.722,186.645 170.171 C 190.544 171.504,191.263 171.703,192.073 171.672 C 192.686 171.650,192.616 171.582,191.733 171.346 C 175.085 166.887,164.839 156.036,161.876 139.726 C 161.356 136.861,161.397 114.254,161.924 114.042 C 162.161 113.946,162.097 113.872,161.765 113.857 C 161.244 113.833,161.208 114.624,161.208 126.228 M166.375 114.059 L 167.250 114.192 167.281 125.538 C 167.299 131.778,167.406 137.216,167.520 137.621 C 167.633 138.026,167.685 133.018,167.634 126.492 C 167.530 113.208,167.590 113.814,166.385 113.879 L 165.501 113.927 166.375 114.059 M232.114 114.105 C 232.114 114.256,232.472 114.311,232.909 114.227 C 233.347 114.144,233.704 114.020,233.704 113.953 C 233.704 113.886,233.347 113.831,232.909 113.831 C 232.472 113.831,232.114 113.955,232.114 114.105 M236.248 114.122 L 237.997 114.308 237.986 126.868 C 237.973 140.408,237.984 140.299,236.088 146.129 C 235.438 148.129,233.788 151.621,232.192 154.374 C 225.177 166.476,209.416 173.706,194.118 171.841 C 192.967 171.701,192.921 171.720,193.641 172.049 C 194.768 172.565,203.846 172.583,206.041 172.074 C 210.103 171.133,210.720 170.972,212.083 170.506 C 215.236 169.426,220.671 166.619,222.696 165.024 C 226.390 162.115,228.954 159.527,231.187 156.455 C 237.095 148.325,238.796 141.023,238.787 123.831 C 238.782 113.189,238.930 113.817,236.449 113.883 L 234.499 113.935 236.248 114.122 M231.895 118.760 C 231.897 119.809,231.956 120.200,232.027 119.629 C 232.098 119.057,232.096 118.199,232.024 117.721 C 231.951 117.243,231.893 117.711,231.895 118.760 M231.928 126.550 C 231.928 129.785,231.976 131.109,232.033 129.491 C 232.091 127.874,232.091 125.227,232.033 123.609 C 231.976 121.991,231.928 123.315,231.928 126.550 M231.861 135.416 C 231.801 138.208,231.599 139.467,230.793 142.075 C 230.613 142.656,230.537 143.202,230.623 143.288 C 230.709 143.374,230.920 142.970,231.092 142.390 C 231.873 139.761,232.151 137.637,232.043 135.135 L 231.926 132.432 231.861 135.416 M167.922 139.393 C 167.880 140.456,169.114 144.823,169.382 144.556 C 169.480 144.457,169.412 143.978,169.231 143.492 C 168.934 142.698,168.456 140.857,168.092 139.110 C 168.003 138.682,167.947 138.775,167.922 139.393 M169.480 145.182 C 169.446 147.904,176.078 156.517,180.604 159.629 C 181.875 160.503,181.912 160.513,180.938 159.718 C 176.310 155.942,173.124 152.144,170.990 147.857 C 170.162 146.194,169.482 144.990,169.480 145.182 M172.814 191.661 C 170.337 191.888,170.393 191.818,170.496 194.524 L 170.588 196.979 173.517 197.142 C 175.128 197.232,176.593 197.452,176.773 197.632 C 176.984 197.842,177.129 202.808,177.183 211.618 L 177.266 225.278 179.968 225.278 L 182.671 225.278 182.754 211.517 L 182.837 197.756 183.649 197.447 C 184.096 197.277,185.448 197.138,186.655 197.138 C 189.246 197.138,189.507 196.867,189.507 194.177 C 189.507 191.532,189.644 191.574,181.111 191.574 C 177.072 191.574,173.339 191.613,172.814 191.661 M214.709 191.664 C 210.295 191.775,210.774 189.578,210.882 209.221 L 210.970 225.278 218.919 225.278 L 226.868 225.278 226.963 223.298 C 227.118 220.041,227.153 220.063,221.694 219.961 L 217.011 219.873 216.922 215.606 C 216.812 210.345,216.459 210.688,222.193 210.493 L 226.868 210.334 226.960 208.078 C 227.083 205.096,227.132 205.124,221.600 205.017 L 217.011 204.928 216.922 201.232 C 216.815 196.823,216.389 197.149,222.273 197.143 C 226.956 197.138,227.029 197.096,227.022 194.452 C 227.014 191.386,226.890 191.357,214.709 191.664 M188.806 194.356 L 188.712 196.661 185.945 196.820 C 182.090 197.042,182.420 195.732,182.317 211.197 C 182.268 218.592,182.220 224.750,182.211 224.881 C 182.202 225.012,181.121 225.119,179.809 225.119 L 177.424 225.119 177.420 211.526 C 177.417 203.547,177.291 197.736,177.114 197.456 C 176.896 197.109,176.009 196.936,173.860 196.820 L 170.906 196.661 170.810 194.789 C 170.657 191.826,169.905 192.051,179.972 192.051 L 188.899 192.051 188.806 194.356 M226.646 194.248 C 226.768 196.847,226.841 196.810,221.647 196.815 C 216.097 196.822,216.216 196.725,216.216 201.245 C 216.216 205.578,216.160 205.533,221.553 205.453 C 226.577 205.378,226.767 205.475,226.644 208.048 L 226.550 210.016 221.907 210.175 C 215.893 210.381,216.216 210.083,216.216 215.421 C 216.216 220.760,215.893 220.462,221.908 220.668 L 226.550 220.827 226.644 222.973 L 226.738 225.119 218.933 225.119 L 211.129 225.119 211.129 208.797 C 211.129 199.820,211.227 192.377,211.346 192.257 C 211.466 192.138,214.936 192.078,219.057 192.125 L 226.550 192.210 226.646 194.248 " stroke="none" fill="#cfcfcf" fill-rule="evenodd"></path><path id="path4" d="M198.649 61.915 C 199.217 61.986,200.147 61.986,200.715 61.915 C 201.284 61.845,200.819 61.787,199.682 61.787 C 198.545 61.787,198.080 61.845,198.649 61.915 M172.326 66.375 L 170.588 68.203 172.417 66.466 C 173.422 65.510,174.245 64.687,174.245 64.637 C 174.245 64.401,173.941 64.677,172.326 66.375 M253.810 82.035 C 253.810 82.647,253.875 82.897,253.955 82.591 C 254.035 82.285,254.035 81.785,253.955 81.479 C 253.875 81.172,253.810 81.423,253.810 82.035 M149.933 83.922 C 149.810 84.122,149.926 84.178,150.226 84.063 C 150.563 83.933,150.668 84.014,150.553 84.315 C 150.455 84.569,150.894 85.228,151.582 85.861 L 152.782 86.963 151.733 85.819 C 151.156 85.189,150.726 84.492,150.779 84.269 C 150.899 83.759,150.209 83.476,149.933 83.922 M175.914 101.332 C 176.220 101.412,176.721 101.412,177.027 101.332 C 177.333 101.252,177.083 101.187,176.471 101.187 C 175.859 101.187,175.608 101.252,175.914 101.332 M162.887 113.748 C 163.723 113.813,165.011 113.813,165.749 113.746 C 166.487 113.679,165.803 113.625,164.229 113.626 C 162.655 113.627,162.051 113.682,162.887 113.748 M233.793 113.748 C 234.629 113.813,235.917 113.813,236.655 113.746 C 237.393 113.679,236.709 113.625,235.135 113.626 C 233.561 113.627,232.957 113.682,233.793 113.748 M161.032 124.642 C 161.032 130.151,161.075 132.405,161.128 129.650 C 161.181 126.896,161.181 122.389,161.128 119.634 C 161.075 116.880,161.032 119.134,161.032 124.642 M167.710 125.437 C 167.710 131.383,167.753 133.771,167.806 130.743 C 167.858 127.715,167.858 122.850,167.805 119.932 C 167.753 117.014,167.710 119.491,167.710 125.437 M238.548 134.817 C 238.548 135.429,238.613 135.680,238.693 135.374 C 238.773 135.068,238.773 134.567,238.693 134.261 C 238.613 133.955,238.548 134.205,238.548 134.817 M223.038 155.564 L 221.781 156.916 223.132 155.659 C 224.389 154.490,224.629 154.213,224.389 154.213 C 224.337 154.213,223.729 154.821,223.038 155.564 M225.102 163.037 L 224.006 164.229 225.199 163.133 C 226.309 162.113,226.537 161.844,226.294 161.844 C 226.241 161.844,225.705 162.381,225.102 163.037 M193.641 172.414 C 193.641 172.547,194.535 172.638,195.628 172.618 C 197.776 172.578,197.567 172.426,195.151 172.271 C 194.320 172.217,193.641 172.282,193.641 172.414 M203.816 172.337 L 202.067 172.551 203.895 172.603 C 204.937 172.633,205.723 172.518,205.723 172.337 C 205.723 172.162,205.688 172.042,205.644 172.071 C 205.600 172.099,204.777 172.219,203.816 172.337 M170.947 191.666 C 170.862 191.805,171.318 191.866,171.962 191.802 C 173.722 191.629,173.931 191.468,172.435 191.440 C 171.702 191.426,171.033 191.528,170.947 191.666 M174.807 191.645 C 175.378 191.716,176.237 191.715,176.715 191.642 C 177.193 191.570,176.725 191.512,175.676 191.513 C 174.626 191.515,174.235 191.575,174.807 191.645 M184.340 191.639 C 184.734 191.715,185.378 191.715,185.771 191.639 C 186.165 191.564,185.843 191.502,185.056 191.502 C 184.269 191.502,183.947 191.564,184.340 191.639 M213.128 191.650 C 214.140 191.714,215.714 191.713,216.625 191.649 C 217.537 191.585,216.709 191.533,214.785 191.534 C 212.862 191.535,212.116 191.587,213.128 191.650 M219.963 191.650 C 220.887 191.714,222.318 191.713,223.143 191.648 C 223.967 191.583,223.211 191.530,221.463 191.531 C 219.714 191.532,219.039 191.585,219.963 191.650 M170.185 195.548 C 170.185 196.161,170.250 196.411,170.330 196.105 C 170.410 195.799,170.410 195.298,170.330 194.992 C 170.250 194.686,170.185 194.936,170.185 195.548 M226.528 196.811 C 226.358 196.980,224.291 197.164,221.933 197.218 L 217.647 197.317 221.980 197.387 C 225.505 197.443,226.387 197.367,226.709 196.979 C 227.148 196.451,227.013 196.326,226.528 196.811 M186.486 197.138 L 183.943 197.340 186.388 197.398 C 187.743 197.430,188.921 197.314,189.030 197.138 C 189.138 196.963,189.183 196.847,189.128 196.879 C 189.074 196.911,187.886 197.028,186.486 197.138 M172.266 197.372 C 173.014 197.439,174.158 197.438,174.810 197.369 C 175.461 197.301,174.849 197.246,173.450 197.247 C 172.051 197.248,171.518 197.304,172.266 197.372 M176.914 203.975 C 176.915 206.423,176.964 207.382,177.025 206.107 C 177.085 204.831,177.085 202.828,177.024 201.655 C 176.963 200.483,176.914 201.526,176.914 203.975 M176.926 217.011 C 176.926 221.383,176.971 223.216,177.026 221.084 C 177.081 218.952,177.081 215.374,177.026 213.135 C 176.972 210.895,176.927 212.639,176.926 217.011 M219.793 210.729 C 220.974 210.790,222.905 210.790,224.086 210.729 C 225.266 210.667,224.300 210.617,221.940 210.617 C 219.579 210.617,218.613 210.667,219.793 210.729 " stroke="none" fill="#bcbcbc" fill-rule="evenodd"></path></g></svg>